<?xml version="1.0" encoding="iso-8859-1"?>
<!-- Generator: Adobe Illustrator 19.0.0, SVG Export Plug-In . SVG Version: 6.00 Build 0)  -->
<svg version="1.1" id="Capa_1" xmlns="http://www.w3.org/2000/svg" xmlns:xlink="http://www.w3.org/1999/xlink" x="0px" y="0px"
	 viewBox="0 0 426.667 426.667" style="enable-background:new 0 0 426.667 426.667;" xml:space="preserve">
<circle style="fill:#D5D6DB;" cx="357.632" cy="271.317" r="60.71"/>
<path style="fill:#64798A;" d="M357.611,340.393c-38.08,0-69.056-30.979-69.056-69.058s30.976-69.058,69.056-69.058
	s69.056,30.979,69.056,69.058S395.691,340.393,357.611,340.393z M357.611,218.974c-28.872,0-52.358,23.489-52.358,52.361
	s23.486,52.361,52.358,52.361c28.872,0,52.358-23.489,52.358-52.361S386.483,218.974,357.611,218.974z"/>
<circle style="fill:#D5D6DB;" cx="69.077" cy="271.317" r="60.71"/>
<path style="fill:#64798A;" d="M69.056,340.393C30.976,340.393,0,309.415,0,271.335s30.976-69.058,69.056-69.058
	s69.061,30.979,69.061,69.058S107.135,340.393,69.056,340.393z M69.056,218.974c-28.872,0-52.358,23.489-52.358,52.361
	s23.486,52.361,52.358,52.361s52.364-23.489,52.364-52.361S97.928,218.974,69.056,218.974z"/>
<g>
	<path style="fill:#44C4A1;" d="M215.01,288.032H73.79c-4.81,0-9.218-2.628-11.501-6.859c-2.288-4.229-2.071-9.357,0.565-13.379
		l76.991-117.514h159.168c6.321,0,11.974,3.525,14.751,9.202c2.783,5.674,2.098,12.303-1.777,17.295l-79.78,102.831
		C228.12,284.88,221.69,288.032,215.01,288.032z M80.497,271.335H215.01c1.576,0,3.033-0.712,4-1.957l79.785-102.839l-149.917,0.424
		L80.497,271.335z"/>
	
		<rect x="168.357" y="117.024" transform="matrix(-0.8585 0.5127 -0.5127 -0.8585 433.2903 289.5293)" style="fill:#44C4A1;" width="16.7" height="175.018"/>
</g>
<path style="fill:#64798A;" d="M170.762,99.501H79.077v15.866c0,16.81,15.379,29.418,31.863,26.121l62.534-12.507
	c6.464-1.293,11.116-6.968,11.116-13.56v-2.092C184.59,105.692,178.399,99.501,170.762,99.501z"/>
<path style="fill:#44C4A1;" d="M354.268,272.914c-2.125,0-4.245-0.804-5.876-2.416c-59.913-59.31-49.152-171.96-48.662-176.727
	l0.766-7.498h73.975c16.306,0,29.574,13.268,29.574,29.574c0,16.309-13.268,29.576-29.574,29.576h-23.078
	c-4.609,0-8.349-3.737-8.349-8.349s3.74-8.349,8.349-8.349h23.078c7.099,0,12.876-5.778,12.876-12.879
	c0-7.101-5.778-12.876-12.876-12.876h-58.631c-1.25,25.581-1.582,110.242,44.303,155.662c3.272,3.242,3.299,8.528,0.06,11.806
	C358.568,272.088,356.421,272.914,354.268,272.914z"/>
<g>
	<circle style="fill:#3A556A;" cx="69.077" cy="276.224" r="18.091"/>
	<circle style="fill:#3A556A;" cx="357.632" cy="271.317" r="18.091"/>
</g>
<g>
</g>
<g>
</g>
<g>
</g>
<g>
</g>
<g>
</g>
<g>
</g>
<g>
</g>
<g>
</g>
<g>
</g>
<g>
</g>
<g>
</g>
<g>
</g>
<g>
</g>
<g>
</g>
<g>
</g>
</svg>
