<svg id="icons" enable-background="new 0 0 64 64" height="512" viewBox="0 0 64 64" width="512" xmlns="http://www.w3.org/2000/svg"><g><g><path d="m19.63 32.003c-1.899-1.26-4.18-2-6.63-2-6.63 0-12 5.38-12 12 0 6.63 5.37 12 12 12s12-5.37 12-12c0-4.169-2.13-7.849-5.37-10zm-6.63 19.001c-4.97 0-9-4.029-9-9s4.03-9 9-9c1.84 0 3.55.55 4.97 1.5 2.431 1.609 4.03 4.37 4.03 7.5 0 4.971-4.03 9-9 9z" fill="#656d78"/></g><g><path d="m27.002 43.004h-11.002c-.553 0-1-.447-1-1s.447-1 1-1h11.002c.553 0 1 .447 1 1s-.447 1-1 1z" fill="#4a89dc"/></g><g><path d="m54 42.004c0 1.66-1.34 3-3 3s-3-1.34-3-3c0-1.33.87-2.46 2.08-2.85.29-.101.6-.15.92-.15 1.66 0 3 1.35 3 3z" fill="#ccd1d9"/></g><g><path d="m48.24 33.443c-3.62 1.16-6.24 4.551-6.24 8.561 0 4.971 4.03 9 9 9s9-4.029 9-9-4.03-9-9-9c-.96 0-1.89.15-2.76.439zm-.92-2.86c1.16-.38 2.399-.58 3.68-.58 6.63 0 12 5.38 12 12 0 6.63-5.37 12-12 12s-12-5.37-12-12c0-5.339 3.49-9.87 8.32-11.42z" fill="#656d78"/></g><g><path d="m51 43.004c-.423 0-.815-.27-.952-.693l-10.001-31.006c-.169-.526.119-1.089.646-1.259.526-.171 1.089.119 1.259.645l10.001 31.007c.169.525-.119 1.089-.646 1.259-.102.031-.205.047-.307.047z" fill="#5d9cec"/></g><g><path d="m48.999 11.998h-8c-.553 0-1-.448-1-1s.447-1 1-1h8c.553 0 1 .448 1 1s-.447 1-1 1z" fill="#e6e9ed"/></g><g><path d="m45.999 14.998c-.553 0-1-.448-1-1s.447-1 1-1c1.103 0 2-.897 2-2 0-.552.447-1 1-1s1 .448 1 1c0 2.205-1.794 4-4 4z" fill="#e6e9ed"/></g><g><path d="m12.999 43.004c-.189 0-.381-.054-.552-.166-.46-.306-.586-.926-.281-1.387l10.6-16c.305-.461.923-.588 1.387-.281.46.305.586.925.281 1.385l-10.6 16.001c-.192.291-.511.448-.835.448z" fill="#4a89dc"/></g><g><path d="m45.839 27.003h-22.239c-.553 0-1-.448-1-1s.447-1 1-1h22.239c.553 0 1 .448 1 1s-.447 1-1 1z" fill="#4a89dc"/></g><g><path d="m32.11 40.873c-.254 0-.509-.097-.703-.289-.393-.389-.396-1.021-.008-1.414l13.729-13.871c.388-.391 1.022-.396 1.414-.007.393.389.396 1.022.008 1.415l-13.729 13.869c-.195.198-.453.297-.711.297z" fill="#4a89dc"/></g><g><path d="m28.889 40.224c-.396 0-.772-.237-.929-.629l-6.89-17.219c-.205-.514.045-1.096.558-1.301.509-.203 1.095.044 1.3.557l6.89 17.221c.205.513-.045 1.095-.558 1.3-.121.048-.247.071-.371.071z" fill="#5d9cec"/></g><g><path d="m32.11 39.874c.55.55.89 1.3.89 2.13s-.34 1.58-.88 2.12-1.29.88-2.12.88c-1.66 0-3-1.34-3-3 0-1.26.78-2.34 1.89-2.779.341-.141.721-.221 1.11-.221.83 0 1.57.33 2.11.87z" fill="#ccd1d9"/></g><g><path d="m34.993 47.998c-.256 0-.512-.098-.707-.293l-4.993-4.992c-.391-.391-.391-1.023 0-1.414s1.023-.391 1.414 0l4.993 4.992c.391.391.391 1.023 0 1.414-.195.195-.451.293-.707.293z" fill="#545c66"/></g><g><path d="m37 47.998h-5c-.553 0-1-.447-1-1s.447-1 1-1h5c.553 0 1 .447 1 1s-.447 1-1 1z" fill="#656d78"/></g><g><path d="m13 45.004c-1.66 0-3-1.34-3-3 0-1.65 1.34-3 3-3 .61 0 1.18.189 1.66.5.81.54 1.34 1.46 1.34 2.5 0 1.66-1.34 3-3 3z" fill="#ccd1d9"/></g><g><g><path d="m25 20.004c1.66 0 3 1.34 3 3h-6-4v-3z" fill="#656d78"/></g><path d="m24.999 19.004c-.553 0-1 .448-1 1s.447 1 1 1c1.103 0 2 .896 2 2h2c0-2.206-1.794-4-4-4z" fill="#656d78"/><g><path d="m17.999 23.003c-.553 0-1-.448-1-1v-2c0-.552.447-1 1-1s1 .448 1 1v2c0 .552-.447 1-1 1z" fill="#656d78"/></g><g><path d="m24.999 21.004h-7c-.553 0-1-.448-1-1s.447-1 1-1h7c.553 0 1 .448 1 1s-.447 1-1 1z" fill="#656d78"/></g></g></g></svg>